<svg xmlns="http://www.w3.org/2000/svg" xmlns:xlink="http://www.w3.org/1999/xlink" width="512" height="512" viewBox="0 0 512.003 512.003" xmlns:v="https://vecta.io/nano"><g fill="#1C0E00"><use xlink:href="#B"/><use xlink:href="#B" x="92.825" y="0.001"/><path d="M285.963 269.947a7.5 7.5 0 0 0-10.467 1.706c-3.654 5.077-11.305 8.357-19.495 8.357s-15.841-3.28-19.494-8.357a7.5 7.5 0 0 0-12.174 8.761c6.478 9.003 18.613 14.595 31.669 14.595s25.19-5.592 31.669-14.595c2.417-3.362 1.653-8.049-1.708-10.467zm161.43 83.149l-22.033 6.978a7.5 7.5 0 1 0 4.529 14.299l22.032-6.978c15.063-4.77 24.946-19.135 24.035-34.934-1.829-31.679-9.54-95.853-40.63-169.73-38.751-92.073-94.229-126.545-134.939-139.135C290.743 9.369 274.446 0 256.001 0s-34.743 9.369-44.387 23.596c-40.71 12.589-96.188 47.062-134.936 139.137-31.09 73.877-38.801 138.052-40.63 169.73-.912 15.799 8.972 30.164 24.034 34.934l21.857 6.922c3.946 1.25 8.163-.937 9.414-4.885a7.5 7.5 0 0 0-4.885-9.414l-21.858-6.922c-8.517-2.697-14.105-10.827-13.589-19.771 1.774-30.716 9.261-92.968 39.481-164.777 32.629-77.536 77.156-111.516 113.094-126.171-.007.034-.012.069-.019.103-.159.75-.296 1.507-.423 2.269-.025.152-.057.303-.082.456-.123.781-.224 1.569-.313 2.361-.015.137-.038.272-.052.409-.082.787-.141 1.58-.188 2.376l-.032.425c-.048.93-.074 1.866-.074 2.808a52.6 52.6 0 0 0 .081 2.861c.017.319.051.637.074.956l.131 1.675c-22.73 9.833-42.191 25.68-56.548 46.113-10.587 15.068-17.83 31.914-21.504 49.678l-.093.439-.525 2.734-.298 1.723-.518 3.313-.371 2.768-.206 1.794-.348 3.647-.077.96a136.06 136.06 0 0 0-.237 4.161l-.047 1.233-.087 4.58v1.637c0 .499.03.99.083 1.475.017.161.05.316.073.475.046.321.094.642.162.956.04.184.093.363.14.544.073.281.148.562.239.836.061.186.132.366.201.548.099.261.201.519.316.772.034.076.059.157.095.233-.017.017-.033.035-.05.052-.154.153-.302.311-.451.468l-.372.39c-.149.163-.292.332-.437.499l-.345.399c-.144.173-.281.351-.42.528l-.32.407c-.137.182-.267.369-.399.555l-.296.416c-.131.192-.254.389-.379.585l-.269.419c-.123.201-.238.407-.355.612l-.245.426c-.114.208-.219.42-.327.631l-.224.437c-.104.214-.199.432-.297.65l-.203.449c-.094.221-.179.446-.267.67l-.18.455c-.084.229-.16.463-.238.695l-.155.457c-.073.232-.136.468-.202.704l-.135.474c-.06.234-.111.471-.165.707l-.114.493c-.051.247-.092.498-.135.748l-.084.472c-.041.269-.072.541-.104.812l-.055.428c-.029.281-.046.565-.065.849l-.031.411c-.022.422-.033.847-.033 1.274v19.071c0 13.624 11.084 24.708 24.708 24.708h4.449c.055.201.118.399.175.6l.275.943.592 1.985.073.228c1.092 3.483 2.353 6.91 3.771 10.272l.062.149c4.75 11.216 11.271 21.686 19.337 30.918 11.46 13.116 25.814 23.515 41.754 30.296v10.043a9.49 9.49 0 0 1-7.594 9.272l-9.139 1.837c-.289.058-.572.133-.847.222l-70.989 20.902c-18.209 5.362-33.845 16.231-45.216 31.432a86.59 86.59 0 0 0-17.38 52.252v43.662c0 8.79 7.151 15.942 15.942 15.942h360.461c8.79-.003 15.942-7.154 15.942-15.945v-43.662c0-18.983-6.01-37.052-17.38-52.252s-27.006-26.07-45.216-31.432l-70.986-20.901c-.276-.09-.559-.164-.849-.223l-11.16-2.243c-4.4-.884-7.594-4.784-7.594-9.272v-8.804c5.724-2.308 11.212-5.079 16.434-8.243l.432-.261 1.81-1.131.915-.59 1.447-.954 1.537-1.055.848-.588c16.969-12.016 30.554-28.504 39.035-47.73l.029-.066 1.168-2.75.195-.477.939-2.403.256-.672.859-2.401.217-.615.92-2.831.428-1.435.438-1.497.153-.523h4.45c13.624 0 24.708-11.084 24.708-24.708v-19.071c0-.427-.011-.852-.033-1.274-.007-.138-.022-.274-.031-.411l-.065-.849c-.015-.144-.037-.285-.055-.428l-.104-.812c-.024-.158-.057-.314-.084-.472l-.135-.748c-.034-.166-.077-.329-.114-.493l-.165-.707c-.041-.159-.09-.316-.135-.474l-.202-.704c-.048-.154-.104-.305-.155-.457l-.238-.695c-.057-.153-.12-.303-.18-.455l-.267-.67c-.064-.151-.136-.299-.203-.449l-.297-.65c-.072-.148-.15-.291-.224-.437l-.327-.631c-.079-.144-.164-.284-.245-.426l-.355-.612c-.087-.142-.179-.279-.269-.419l-.379-.585c-.096-.141-.198-.277-.296-.416l-.399-.555c-.104-.138-.213-.271-.32-.407l-.42-.528c-.112-.135-.23-.266-.345-.399l-.437-.499c-.121-.133-.248-.26-.372-.39l-.452-.468c-.017-.017-.033-.035-.05-.052.036-.075.061-.157.095-.233.114-.253.217-.511.316-.772.069-.182.14-.363.201-.548.091-.274.166-.554.239-.836.047-.181.1-.36.14-.544.068-.314.116-.634.162-.956.023-.159.055-.314.073-.475.052-.485.083-.977.083-1.475v-1.637a133.91 133.91 0 0 0-.087-4.58l-.047-1.233-.237-4.161-.077-.96-.348-3.647-.206-1.794-.371-2.768-.518-3.313-.298-1.723-.525-2.734-.093-.439c-3.674-17.764-10.917-34.61-21.504-49.678-14.356-20.433-33.818-36.281-56.548-46.113.058-.558.09-1.117.131-1.675l.074-.956a52.63 52.63 0 0 0 .081-2.861 54.54 54.54 0 0 0-.074-2.81c-.007-.131-.022-.261-.03-.393-.048-.808-.108-1.613-.191-2.411-.013-.122-.033-.242-.046-.364-.09-.807-.193-1.61-.319-2.406-.023-.144-.053-.285-.077-.429-.128-.769-.267-1.534-.427-2.292-.007-.034-.012-.069-.019-.103 35.938 14.656 80.465 48.636 113.095 126.171 30.219 71.808 37.707 134.06 39.481 164.777.516 8.944-5.072 17.074-13.589 19.771zm-229.9-301.88l.048-.634c.048-.612.109-1.222.185-1.829l.073-.575a38.42 38.42 0 0 1 .949-4.642l.157-.55a38.7 38.7 0 0 1 .538-1.726l.211-.624a38.65 38.65 0 0 1 .804-2.075c.089-.211.19-.416.283-.625.209-.47.425-.937.653-1.399l.481-.937c.189-.358.388-.712.588-1.065 6.649-11.655 19.186-19.536 33.538-19.536s26.881 7.876 33.53 19.526l.599 1.085.472.921c.234.475.457.954.672 1.437l.266.587c.291.689.559 1.386.81 2.09.071.199.136.401.204.602.196.58.379 1.163.547 1.752l.151.531a38.61 38.61 0 0 1 .952 4.651c.027.189.049.379.072.569a38.68 38.68 0 0 1 .186 1.833l.048.633c.048.788.08 1.578.08 2.371 0 .039-.003.078-.003.117-.444-.133-.893-.247-1.339-.375l-1.625-.456-3.392-.886-2.247-.542-2.086-.455-2.169-.44-1.896-.364-3.707-.612-1.672-.235-2.746-.351-1.538-.176-4.069-.369-1.037-.066-3.433-.186-1.258-.048c-1.452-.047-2.907-.079-4.37-.079s-2.918.032-4.37.079l-1.258.048-3.433.186-1.037.066c-1.362.102-2.719.227-4.069.369l-1.538.176-2.746.351-1.672.235-3.707.612-1.896.364-2.169.44-2.086.455-2.247.542-3.392.886-1.625.456-1.339.375c0-.039-.003-.078-.003-.117a35.99 35.99 0 0 1 .077-2.371zm-76.987 184.832h0c-5.354.001-9.71-4.355-9.71-9.708v-19.071c0-5.351 4.35-9.704 9.7-9.709h.32v22.826c0 1.196.024 2.387.061 3.574l.035.931.146 2.858.049.772a115.13 115.13 0 0 0 .745 7.294l.028.233h-1.374zm-7.24 260.953v-35.509c0-1.948.623-3.861 1.754-5.386 12.073-16.282 30.598-25.62 50.823-25.62a63.07 63.07 0 0 1 48.619 22.816c5.36 6.443 13.21 10.138 21.538 10.138s16.178-3.695 21.538-10.138a63.07 63.07 0 0 1 48.619-22.816c20.226 0 38.75 9.338 50.823 25.62 1.131 1.526 1.754 3.439 1.754 5.386v35.509H133.266zM303.625 360.05l10.805 2.172 70.91 20.879c15.079 4.44 28.026 13.44 37.442 26.027s14.392 27.549 14.392 43.268v43.662c0 .52-.423.943-.943.943h-42.496v-35.509c0-5.143-1.671-10.228-4.705-14.32-14.712-19.84-38.215-31.685-62.871-31.685-23.306 0-45.23 10.287-60.15 28.222-2.501 3.007-6.148 4.731-10.007 4.731s-7.506-1.724-10.007-4.731c-14.92-17.936-36.844-28.222-60.15-28.222-24.656 0-48.16 11.845-62.871 31.685-3.034 4.092-4.705 9.177-4.705 14.32v35.509H75.771c-.52 0-.943-.423-.943-.943v-43.662c0-15.719 4.977-30.681 14.392-43.268a71.7 71.7 0 0 1 37.441-26.027l70.91-20.879 8.784-1.766c11.378-2.287 19.637-12.371 19.637-23.977v-4.862c.356.096.715.177 1.072.27l.674.17a114.42 114.42 0 0 0 7.046 1.546l1.352.247 1.819.302 1.645.244 1.62.227 3.107.357 1.193.106 2.279.187 1.292.082 2.336.114 1.125.043 3.45.056c1.1 0 2.195-.019 3.288-.05l1.086-.041 2.188-.1 1.294-.082 1.977-.151 1.354-.121 1.944-.208 1.328-.152 2.358-.326 2.099-.331 1.678-.285 1.729-.332 1.347-.271 1.849-.403 1.126-.263 1.344-.314v3.934c0 .857.059 1.703.147 2.541.21 1.999.651 3.939 1.321 5.78.097.267.219.523.325.786.154.38.297.765.47 1.136.037.08.083.154.12.233 3.235 6.788 9.518 11.948 17.251 13.502zm52.525-136.995l-.021.543-.087 2.137-.036.571-.142 2.102-.053.595-.194 2.055-.077.672-.236 1.939-.113.809-.261 1.748-.167 1.004-.263 1.485-.239 1.245-.24 1.171-.305 1.4-.353 1.491-.403 1.62-.591 2.177-.436 1.462-.398 1.296-.449 1.38-.514 1.498-.4 1.134-.989 2.604c-.052.132-.108.261-.161.392l-1.006 2.413-.217.494-1.177 2.585-.028.06c-6.779 14.273-16.882 26.792-29.327 36.462l-.628.482-1.582 1.182-.913.667-1.262.882a97.26 97.26 0 0 1-2.577 1.729l-.418.273-1.859 1.161-.235.143a99.8 99.8 0 0 1-19.632 9.16l-2.457.8-1.696.506-1.996.558-1.975.51-2.328.546-1.296.283a98.44 98.44 0 0 1-3.145.599l-1.134.188-3.353.494-.58.067c-1.079.131-2.161.243-3.246.34l-.82.073a101.7 101.7 0 0 1-3.585.224l-.772.029c-1.258.047-2.517.078-3.78.078-1.356 0-2.708-.035-4.057-.089l-.679-.026c-1.252-.058-2.499-.143-3.744-.247l-.959-.085c-1.189-.111-2.374-.241-3.556-.394l-1.087-.153-2.97-.464-1.556-.282-2.534-.512-1.626-.359c-.904-.21-1.804-.438-2.702-.673l-1.765-.479-2.597-.772-1.992-.648-1.176-.408c-5.087-1.78-9.991-3.953-14.668-6.494l-.114-.062-1.966-1.101-.741-.436-1.651-.985-2.253-1.422-.207-.136c-18.211-11.94-32.333-29.689-39.736-50.226l-.113-.32-.775-2.27-.284-.872-.548-1.791-.314-1.053-.671-2.475-.336-1.372-.338-1.429-.307-1.407-.24-1.171-.239-1.245-.263-1.485-.167-1.004-.261-1.748-.113-.809-.236-1.939-.077-.672-.194-2.055-.053-.595-.142-2.102-.036-.571-.087-2.137-.021-.543-.036-2.669v-23.264c.056-.012.106-.028.157-.04a18.95 18.95 0 0 0 1.029-.269c.135-.04.268-.085.403-.127.256-.081.51-.167.761-.259l.428-.164c.247-.098.49-.201.732-.309l.389-.175c.293-.139.58-.286.865-.44.07-.038.142-.072.211-.11.349-.194.691-.401 1.026-.618.1-.064.196-.134.294-.2a18.86 18.86 0 0 0 .702-.494 17.65 17.65 0 0 0 .346-.266 18.73 18.73 0 0 0 .62-.506l.326-.282c.22-.197.435-.401.646-.608l.236-.23c.283-.288.557-.585.821-.893.053-.062.103-.128.156-.191.209-.25.412-.504.608-.765.083-.11.162-.224.242-.337.161-.225.317-.453.469-.686l.236-.373a17.53 17.53 0 0 0 .431-.743l.19-.343a18.54 18.54 0 0 0 .547-1.125c.157-.355.286-.723.386-1.098l9.064-34.02c.309-1.161.816-2.213 1.488-3.126 1.121-1.522 2.706-2.655 4.614-3.255.764-.24 1.536-.381 2.3-.424 2.295-.129 4.534.618 6.373 2.172l3.992 3.313 1.03.844 3.327 2.665 2.195 1.719.875.676c15.235 11.766 29.244 20.365 41.929 26.571l.19.094 2.648 1.264 1.405.657 1.521.685 2.51 1.108.311.132c12.482 5.347 25.535 9.183 38.724 10.499l.866.086 1.83.155c.987.074 1.954.132 2.898.175l.817.03a93.05 93.05 0 0 0 3.407.07h52.797v22.825h.007l-.036 2.669zm25.055-15.786v19.071c0 5.354-4.356 9.709-9.71 9.709h-1.375c.011-.077.017-.156.028-.233a115.13 115.13 0 0 0 .745-7.294l.049-.772.146-2.858.035-.931.061-3.574v-22.826h.32a9.72 9.72 0 0 1 9.701 9.708zm-8.504-49.189l.042.2.481 2.504.243 1.406.484 3.1.317 2.37.187 1.627.305 3.198.072.9c.089 1.222.157 2.447.209 3.675l.042 1.096.077 4.068v.338h-3.665-7.811-60.295c-39.074 0-79.925-29.574-100.797-47.202a24.51 24.51 0 0 0-1.531-1.182l-.444-.308c-.419-.287-.845-.56-1.277-.818l-.375-.227c-.545-.312-1.099-.602-1.663-.869-.127-.06-.256-.113-.383-.17-.457-.207-.918-.399-1.385-.576l-.507-.188c-.556-.197-1.117-.378-1.685-.533-.035-.01-.069-.022-.104-.031-.598-.16-1.204-.29-1.812-.403-.176-.033-.353-.061-.531-.09a23.96 23.96 0 0 0-1.438-.19l-.468-.049a24.21 24.21 0 0 0-1.848-.081c-.036 0-.071-.005-.107-.005-.136 0-.273.013-.409.016a25.33 25.33 0 0 0-1.167.044c-.211.014-.421.034-.632.053-.362.033-.724.075-1.086.124l-.633.094c-.382.063-.764.139-1.145.22l-.546.116a24.45 24.45 0 0 0-1.67.456 24.04 24.04 0 0 0-16.098 16.829l-8.871 33.295a3.44 3.44 0 0 1-2.952 1.676h-3.506-7.811-3.665v-.338c0-1.36.032-2.715.077-4.068l.042-1.096.209-3.675.072-.9a117.24 117.24 0 0 1 .305-3.198l.187-1.627.317-2.37.484-3.1.243-1.406.481-2.504.042-.2c10.181-49.28 50.887-87.533 101.397-94.037l.384-.048 2.436-.279.649-.066 2.196-.196.81-.064 2.071-.132.897-.05 2.1-.08.838-.028 2.922-.037 2.922.037.838.028 2.1.08.897.05 2.071.132.81.064 2.196.196.649.066 2.436.279.384.048c50.51 6.503 91.215 44.755 101.396 94.036z"/></g><defs ><path id="B" d="M209.588 202.254a7.5 7.5 0 0 0-7.499 7.499v13.749a7.5 7.5 0 0 0 7.499 7.499 7.5 7.5 0 0 0 7.499-7.499v-13.749a7.5 7.5 0 0 0-7.499-7.499z"/></defs></svg>