<svg id="Layer_1" height="512" viewBox="0 0 512 512" width="512" xmlns="http://www.w3.org/2000/svg" data-name="Layer 1"><path d="m276.7 35.826a6 6 0 0 0 -6-6h-55a6 6 0 0 0 0 12h55a6 6 0 0 0 6-6z"/><circle cx="295.742" cy="35.826" r="8.087"/><path d="m394.836 92.131v-44.831a37.346 37.346 0 0 0 -37.3-37.3h-201.536a37.346 37.346 0 0 0 -37.3 37.3v54.211a6 6 0 0 0 -5.7 5.985v20.87a6 6 0 0 0 5.7 5.985v19.334a6 6 0 0 0 -5.7 5.985v20.869a6 6 0 0 0 5.7 5.986v278.175a37.346 37.346 0 0 0 37.3 37.3h201.532a37.346 37.346 0 0 0 37.3-37.305v-340.263a6 6 0 0 0 4.175-5.716v-20.869a6 6 0 0 0 -4.171-5.716zm-12 372.564a25.334 25.334 0 0 1 -25.304 25.305h-201.532a25.334 25.334 0 0 1 -25.3-25.305v-417.395a25.334 25.334 0 0 1 25.3-25.3h26.941v14.87a26.87 26.87 0 0 0 26.87 26.869h4.689a6 6 0 0 0 0-12h-4.691a14.87 14.87 0 0 1 -14.871-14.87v-14.869h123.653v14.87a14.869 14.869 0 0 1 -14.869 14.869h-49.222a6 6 0 0 0 0 12h49.222a26.869 26.869 0 0 0 26.869-26.869v-14.87h26.941a25.334 25.334 0 0 1 25.3 25.3z" fill="#1C0E00" data-original="#000000" style="" class=""/></svg>