<svg id="icons" height="512" viewBox="0 0 60 60" width="512" xmlns="http://www.w3.org/2000/svg"><path d="m56.445 14.326a2.152 2.152 0 0 0 -2.539-.582 15.757 15.757 0 0 0 -3.557-6.6 36.1 36.1 0 0 0 -8.228-6.821 2.162 2.162 0 0 0 -1.921-.177 2.125 2.125 0 0 0 -1.285 1.4 15.9 15.9 0 0 1 -5.159 7.584c-4.141 3.516-9.186 3.459-11.828 3.113a5.305 5.305 0 0 0 -5.919 4.173l-2.27 10.871a2.184 2.184 0 0 0 1 2.306l.1.058-.888 2.722a22.487 22.487 0 0 1 -6.827 10.19l-4.7 3.991a6.882 6.882 0 0 0 -1.559 8.577l.008.014a2.111 2.111 0 0 0 -.195.439 2.177 2.177 0 0 0 .427 2.042l1.365 1.605a2.152 2.152 0 0 0 1.651.769 2.225 2.225 0 0 0 .546-.068 62.984 62.984 0 0 0 24.1-13.07 47.684 47.684 0 0 0 6.993-7.51 47.258 47.258 0 0 1 5.969-6.567l.1.124a2.172 2.172 0 0 0 1.493.758c.056 0 .112.006.167.006a2.146 2.146 0 0 0 1.407-.523l14.34-12.179a2.192 2.192 0 0 0 .242-3.068zm-38.482 2.5a3.3 3.3 0 0 1 3.7-2.6c2.972.391 8.655.446 13.384-3.573a17.922 17.922 0 0 0 5.787-8.553.13.13 0 0 1 .085-.091.169.169 0 0 1 .153.014 34.037 34.037 0 0 1 7.751 6.415c2.743 3.23 3.21 5.783 3.287 6.7l-13.59 11.552c-6.659-1.6-14.025 2.14-16.936 3.867a1.357 1.357 0 0 1 -1.4 0l-4.408-2.673a.178.178 0 0 1 -.076-.184l.413-1.979 1.746.5a1.03 1.03 0 0 0 .278.039 1 1 0 0 0 .277-1.961l-1.892-.547.792-3.8 1.847.531a.991.991 0 0 0 .277.039 1 1 0 0 0 .276-1.961l-1.991-.572zm-14.241 31.251 4.7-3.99a24.5 24.5 0 0 0 7.435-11.1l.742-2.276 2.554 1.55a3.358 3.358 0 0 0 3.455.011c2.482-1.472 8.444-4.532 14.012-3.9a52.005 52.005 0 0 0 -5.473 6.147 45.473 45.473 0 0 1 -6.72 7.229 62.746 62.746 0 0 1 -21.879 12.263 4.871 4.871 0 0 1 1.174-5.934zm30.466-9.965a45.513 45.513 0 0 1 -6.72 7.228 60.852 60.852 0 0 1 -23.294 12.654.172.172 0 0 1 -.174-.056l-1.37-1.607a.172.172 0 0 1 -.037-.169.152.152 0 0 1 .114-.11 64.53 64.53 0 0 0 23.011-12.775 47.68 47.68 0 0 0 6.993-7.51 47.221 47.221 0 0 1 5.966-6.567l1.753 2.061a49.479 49.479 0 0 0 -6.242 6.851zm23.752-18.662-14.34 12.182a.2.2 0 0 1 -.123.042.181.181 0 0 1 -.123-.062l-.761-.894-2.4-2.82 14.48-12.3a.142.142 0 0 1 .124-.038.174.174 0 0 1 .123.065l3.037 3.576a.183.183 0 0 1 -.017.249z"/></svg>