<?xml version="1.0" encoding="iso-8859-1"?>
<!-- Generator: Adobe Illustrator 19.0.0, SVG Export Plug-In . SVG Version: 6.00 Build 0)  -->
<svg version="1.1" id="Layer_1" xmlns="http://www.w3.org/2000/svg" xmlns:xlink="http://www.w3.org/1999/xlink" x="0px" y="0px"
	 viewBox="0 0 512.001 512.001" style="enable-background:new 0 0 512.001 512.001;" xml:space="preserve">
<g>
	<g>
		<path d="M498.996,212.78h-12.851c-5.852-22.565-21.388-38.691-46.278-47.982c-16.276-6.075-36.091-9.027-60.576-9.027
			c-1.789,0-3.618-0.004-5.476-0.008c-3.881-0.008-7.879-0.018-11.941,0.008H149.887c-3.982-0.025-7.902-0.017-11.708-0.008
			c-1.86,0.004-3.688,0.008-5.477,0.008c-24.485,0-44.299,2.953-60.575,9.027c-24.89,9.29-40.427,25.416-46.278,47.982H13.004
			C5.833,212.78,0,218.615,0,225.786v16.994c0,7.171,5.833,13.005,13.004,13.005h11.188c5.707,63.067,36.778,100.462,84.067,100.462
			c54.094,0,129.094-55.208,132.174-145.532c3.66-0.831,8.921-1.494,15.568-1.494c6.642,0,11.902,0.664,15.56,1.493
			c3.078,90.325,78.078,145.533,132.174,145.533c47.289,0,78.359-37.395,84.066-100.462h11.194c7.171,0,13.005-5.834,13.005-13.005
			v-16.994C512,218.615,506.165,212.78,498.996,212.78z M36.754,239.986H15.797v-11.409h20.957c0.373,0,0.722,0.165,0.958,0.454
			l4.3,5.25l-4.3,5.25C37.477,239.821,37.127,239.986,36.754,239.986z M184.013,304.468c-22.193,22.193-51.22,35.979-75.754,35.979
			c-20.285,0-36.607-8.343-48.513-24.798c-10.563-14.599-17.312-35.305-19.714-60.202c3.858-0.752,7.358-2.801,9.902-5.905
			l5.691-6.949c3.945-4.816,3.945-11.807,0-16.623l-5.692-6.95c-2.084-2.543-4.812-4.381-7.85-5.38
			c9.206-27.923,39.623-42.073,90.618-42.073h16.467c25.511,0.159,55.491,1.764,68.546,14.789c4.731,4.72,7.03,10.801,7.03,18.594
			C224.745,242.859,210.279,278.202,184.013,304.468z M283.121,175.174c-5.447,5.433-8.996,12.006-10.627,19.612
			c-4.848-0.886-10.477-1.366-16.494-1.366c-6.019,0-11.651,0.48-16.5,1.367c-1.631-7.606-5.182-14.18-10.628-19.614
			c-1.289-1.286-2.669-2.482-4.12-3.604h62.49C285.79,172.692,284.41,173.888,283.121,175.174z M452.248,315.65
			c-11.907,16.455-28.229,24.798-48.514,24.798c-24.533,0-53.561-13.787-75.754-35.979c-26.267-26.266-40.733-61.609-40.733-99.517
			c0-7.792,2.3-13.874,7.031-18.594c12.995-12.965,42.756-14.621,68.193-14.789h16.819c50.996,0,81.414,14.15,90.619,42.075
			c-3.036,0.998-5.762,2.835-7.844,5.378l-5.692,6.95c-3.943,4.816-3.943,11.806,0.001,16.622l5.69,6.949
			c2.542,3.104,6.041,5.152,9.895,5.905C469.559,280.343,462.81,301.051,452.248,315.65z M496.203,239.986h-20.957
			c-0.372,0-0.721-0.165-0.958-0.454l-4.3-5.25l4.301-5.25c0.236-0.289,0.586-0.454,0.957-0.454h20.957V239.986z"/>
	</g>
</g>
<g>
</g>
<g>
</g>
<g>
</g>
<g>
</g>
<g>
</g>
<g>
</g>
<g>
</g>
<g>
</g>
<g>
</g>
<g>
</g>
<g>
</g>
<g>
</g>
<g>
</g>
<g>
</g>
<g>
</g>
</svg>
